<mxfile host="app.diagrams.net" agent="Mozilla/5.0 (Macintosh; Intel Mac OS X 10_15_7) AppleWebKit/537.36 (KHTML, like Gecko) Chrome/131.0.0.0 Safari/537.36" version="26.0.2">
  <diagram name="User Authentication Flow" id="zxPviGL3VSvibneVVI76">
    <mxGraphModel dx="1674" dy="801" grid="1" gridSize="10" guides="1" tooltips="1" connect="1" arrows="1" fold="1" page="1" pageScale="1" pageWidth="827" pageHeight="1169" math="0" shadow="0">
      <root>
        <mxCell id="0" />
        <mxCell id="1" parent="0" />
        <mxCell id="Q9_eDyr1S9YbCXxYB9l6-1" value="Web/Mobile App" style="swimlane;fillColor=#dae8fc;strokeColor=#6c8ebf;fontColor=#000000;" vertex="1" parent="1">
          <mxGeometry width="200" height="360" as="geometry" />
        </mxCell>
        <mxCell id="Q9_eDyr1S9YbCXxYB9l6-2" value="User Inputs Credentials" style="rounded=1;whiteSpace=wrap;html=1;fillColor=#ffffff;strokeColor=#000000;fontColor=#000000;" vertex="1" parent="Q9_eDyr1S9YbCXxYB9l6-1">
          <mxGeometry x="20" y="50" width="160" height="50" as="geometry" />
        </mxCell>
        <mxCell id="Q9_eDyr1S9YbCXxYB9l6-3" value="Send Axios POST Request" style="rounded=1;whiteSpace=wrap;html=1;fillColor=#ffffff;strokeColor=#000000;fontColor=#000000;" vertex="1" parent="Q9_eDyr1S9YbCXxYB9l6-1">
          <mxGeometry x="20" y="270" width="160" height="50" as="geometry" />
        </mxCell>
        <mxCell id="Q9_eDyr1S9YbCXxYB9l6-4" value="Backend Server" style="swimlane;fillColor=#d5e8d4;strokeColor=#82b366;fontColor=#000000;" vertex="1" parent="1">
          <mxGeometry x="241" width="200" height="360" as="geometry" />
        </mxCell>
        <mxCell id="Q9_eDyr1S9YbCXxYB9l6-5" value="login process" style="rounded=1;whiteSpace=wrap;html=1;fillColor=#ffffff;strokeColor=#000000;fontColor=#000000;" vertex="1" parent="Q9_eDyr1S9YbCXxYB9l6-4">
          <mxGeometry x="20" y="151" width="160" height="50" as="geometry" />
        </mxCell>
        <mxCell id="Q9_eDyr1S9YbCXxYB9l6-6" value="Send Response (Full Name &amp; Token)" style="rounded=1;whiteSpace=wrap;html=1;fillColor=#ffffff;strokeColor=#000000;fontColor=#000000;" vertex="1" parent="Q9_eDyr1S9YbCXxYB9l6-4">
          <mxGeometry x="20" y="270" width="160" height="50" as="geometry" />
        </mxCell>
        <mxCell id="Q9_eDyr1S9YbCXxYB9l6-12" value="" style="edgeStyle=orthogonalEdgeStyle;rounded=0;orthogonalLoop=1;jettySize=auto;html=1;" edge="1" parent="Q9_eDyr1S9YbCXxYB9l6-4">
          <mxGeometry relative="1" as="geometry">
            <mxPoint x="80" y="90" as="sourcePoint" />
            <mxPoint x="90" y="151" as="targetPoint" />
          </mxGeometry>
        </mxCell>
        <mxCell id="Q9_eDyr1S9YbCXxYB9l6-10" value="DB: users" style="shape=cylinder3;whiteSpace=wrap;html=1;boundedLbl=1;backgroundOutline=1;size=15;" vertex="1" parent="Q9_eDyr1S9YbCXxYB9l6-4">
          <mxGeometry x="50" y="30" width="80" height="60" as="geometry" />
        </mxCell>
        <mxCell id="Q9_eDyr1S9YbCXxYB9l6-7" value="" style="edgeStyle=orthogonalEdgeStyle;rounded=0;orthogonalLoop=1;jettySize=auto;html=1;strokeColor=#000000;" edge="1" parent="1" source="Q9_eDyr1S9YbCXxYB9l6-2" target="Q9_eDyr1S9YbCXxYB9l6-3">
          <mxGeometry relative="1" as="geometry" />
        </mxCell>
        <mxCell id="Q9_eDyr1S9YbCXxYB9l6-8" value="" style="edgeStyle=orthogonalEdgeStyle;rounded=0;orthogonalLoop=1;jettySize=auto;html=1;strokeColor=#000000;" edge="1" parent="1" source="Q9_eDyr1S9YbCXxYB9l6-3" target="Q9_eDyr1S9YbCXxYB9l6-5">
          <mxGeometry relative="1" as="geometry" />
        </mxCell>
        <mxCell id="Q9_eDyr1S9YbCXxYB9l6-9" value="" style="edgeStyle=orthogonalEdgeStyle;rounded=0;orthogonalLoop=1;jettySize=auto;html=1;strokeColor=#000000;" edge="1" parent="1" source="Q9_eDyr1S9YbCXxYB9l6-5" target="Q9_eDyr1S9YbCXxYB9l6-6">
          <mxGeometry relative="1" as="geometry" />
        </mxCell>
      </root>
    </mxGraphModel>
  </diagram>
</mxfile>
